<svg width="94" height="90" viewBox="0 0 94 90" fill="none" xmlns="http://www.w3.org/2000/svg">
<path d="M47 4.92578C23.5132 4.92578 4.40625 23.0374 4.40625 45.3007C4.40625 67.5625 23.5132 85.6755 47 85.6755C70.4853 85.6755 89.5938 67.5625 89.5938 45.3007C89.5938 23.0374 70.4853 4.92578 47 4.92578ZM47 82.8911C25.1333 82.8911 7.34375 66.0283 7.34375 45.3007C7.34375 24.573 25.1333 7.71026 47 7.71026C68.8668 7.71026 86.6562 24.573 86.6562 45.3007C86.6562 66.0283 68.8668 82.8911 47 82.8911ZM73.0072 26.8229L66.4932 20.6483C66.357 20.5189 66.1951 20.4163 66.0169 20.3462C65.8387 20.2762 65.6477 20.2401 65.4548 20.2401C65.2619 20.2401 65.0709 20.2762 64.8928 20.3462C64.7146 20.4163 64.5527 20.5189 64.4164 20.6483L47 37.1575L29.5836 20.6483C29.4473 20.5189 29.2854 20.4163 29.1072 20.3462C28.9291 20.2762 28.7381 20.2401 28.5452 20.2401C28.3523 20.2401 28.1613 20.2762 27.9831 20.3462C27.8049 20.4163 27.643 20.5189 27.5068 20.6483L20.9928 26.8229C20.8563 26.9521 20.748 27.1055 20.6741 27.2744C20.6002 27.4433 20.5622 27.6243 20.5622 27.8072C20.5622 27.99 20.6002 28.1711 20.6741 28.34C20.748 28.5089 20.8563 28.6623 20.9928 28.7915L38.4093 45.3007L20.9928 61.8098C20.8563 61.939 20.748 62.0924 20.6741 62.2613C20.6002 62.4302 20.5622 62.6113 20.5622 62.7941C20.5622 62.977 20.6002 63.158 20.6741 63.3269C20.748 63.4958 20.8563 63.6492 20.9928 63.7784L27.5068 69.953C27.643 70.0824 27.8049 70.1851 27.9831 70.2551C28.1613 70.3251 28.3523 70.3612 28.5452 70.3612C28.7381 70.3612 28.9291 70.3251 29.1072 70.2551C29.2854 70.1851 29.4473 70.0824 29.5836 69.953L47 53.4438L64.4164 69.953C64.6919 70.214 65.0654 70.3606 65.4548 70.3606C65.8443 70.3606 66.2178 70.214 66.4932 69.953L73.0072 63.7784C73.1437 63.6492 73.252 63.4958 73.3259 63.3269C73.3998 63.158 73.4378 62.977 73.4378 62.7941C73.4378 62.6113 73.3998 62.4302 73.3259 62.2613C73.252 62.0924 73.1437 61.939 73.0072 61.8098L55.5907 45.3007L73.0072 28.7915C73.1437 28.6623 73.252 28.5089 73.3259 28.34C73.3998 28.1711 73.4378 27.99 73.4378 27.8072C73.4378 27.6243 73.3998 27.4433 73.3259 27.2744C73.252 27.1055 73.1437 26.9521 73.0072 26.8229ZM52.4755 44.3163C52.339 44.4455 52.2307 44.599 52.1568 44.7679C52.0829 44.9368 52.0449 45.1178 52.0449 45.3007C52.0449 45.4835 52.0829 45.6646 52.1568 45.8335C52.2307 46.0024 52.339 46.1558 52.4755 46.285L69.8919 62.7941L65.4548 67.0001L48.0384 50.4909C47.9023 50.3612 47.7405 50.2582 47.5623 50.188C47.3841 50.1177 47.193 50.0815 47 50.0815C46.807 50.0815 46.6159 50.1177 46.4377 50.188C46.2595 50.2582 46.0977 50.3612 45.9616 50.4909L28.5452 67.0001L24.1081 62.7941L41.5245 46.285C41.661 46.1558 41.7693 46.0024 41.8432 45.8335C41.9171 45.6646 41.9551 45.4835 41.9551 45.3007C41.9551 45.1178 41.9171 44.9368 41.8432 44.7679C41.7693 44.599 41.661 44.4455 41.5245 44.3163L24.1081 27.8072L28.5452 23.6012L45.9616 40.1104C46.0979 40.2398 46.2597 40.3425 46.4379 40.4125C46.6161 40.4825 46.8071 40.5186 47 40.5186C47.1929 40.5186 47.3839 40.4825 47.5621 40.4125C47.7403 40.3425 47.9021 40.2398 48.0384 40.1104L65.4548 23.6012L69.8919 27.8072L52.4755 44.3163Z" fill="#FF6363"/>
</svg>
