<svg width="45" height="45" viewBox="0 0 45 45" fill="none" xmlns="http://www.w3.org/2000/svg">
<g clip-path="url(#clip0_7102_3331)">
<path d="M39.4305 19.8289C41.7921 19.8448 42.5567 19.1759 42.8512 18.7417C43.9472 17.3074 42.2307 14.5581 38.2062 12.4725C39.7671 9.52112 40.8525 6.87562 41.4001 4.97542C41.6972 3.93568 41.4959 3.3055 41.4396 3.19564C41.2885 4.12025 40.0466 7.45482 37.2033 11.9891C35.0061 11.003 32.2357 10.2225 28.9618 9.8973C28.1761 8.40843 25.8962 4.2846 23.6462 2.08119C22.1661 0.626595 20.9813 0.0930993 20.0567 0.0183923H20.0523C18.8368 -0.117838 18.0599 0.532552 17.6441 0.985189C16.1324 2.6138 15.5058 5.2804 15.4469 8.37415C14.8105 7.2887 13.9378 6.20941 12.942 6.09515H12.9262C11.1104 5.78929 9.55205 8.66331 9.76211 13.2398C6.39062 13.3611 3.52187 13.7451 1.58828 14.2268C0.718164 14.4421 0.162695 14.8658 0.0273438 15.0811C0.115234 15.0477 1.99609 14.2707 9.83242 14.2707C10.2912 18.9289 12.4472 23.2198 12.1176 22.4613C11.2624 23.8148 8.75664 27.9421 7.95947 31.0482C7.44355 33.0591 7.57539 34.3537 7.97266 35.1913C8.46221 36.3119 9.41494 36.6609 10.0117 36.7962C12.209 37.2981 14.8791 36.4772 17.6318 34.9382C16.97 36.0667 16.4102 37.444 16.8355 38.3958C17.478 40.1229 20.7458 40.0359 24.6086 37.5653C26.3822 40.3936 28.1304 42.6576 29.5041 44.0797C29.7296 44.3228 29.9886 44.5327 30.2731 44.7029C30.7249 44.985 31.0272 44.9991 31.0272 44.9991C30.303 44.4058 28.039 41.6592 25.5306 36.9325C27.4835 35.5262 29.5428 33.5161 31.4605 30.8443C42.2553 31.2486 44.0544 28.6681 44.4684 28.0634C45.7577 26.3161 44.7698 23.015 39.4305 19.8289ZM32.5882 29.1647C34.6809 25.8503 35.2548 23.2083 35.1766 21.0497C37.6252 22.594 39.3232 24.3527 39.4885 26.2203C39.5887 27.3568 38.7766 28.7797 32.5882 29.1647ZM19.0653 34.0734C19.9231 33.5258 20.7818 32.9202 21.6317 32.2725C22.2188 33.4441 22.8271 34.5664 23.4423 35.629C19.8739 37.5503 17.3919 36.7505 19.0653 34.0734ZM37.9618 19.0133C37.0574 18.544 36.1021 18.1045 35.1159 17.6906C35.8144 16.6297 36.4809 15.5482 37.1146 14.4474C40.5476 16.5656 41.1487 19.1214 37.9618 19.0133ZM24.5392 34.9795C24.0549 33.982 23.5724 32.9141 23.089 31.7768C26.8902 31.8884 28.5751 30.1306 28.6507 29.9829C28.6507 29.9891 26.4534 31.3575 23.1549 31.0596C25.8476 28.8105 28.3482 26.341 30.6309 23.6768C31.3961 22.7797 32.1265 21.8683 32.822 20.9425C32.7903 20.917 32.6866 20.6788 31.3709 19.8878C26.827 25.185 22.3762 28.5011 19.7034 30.0761C17.8938 29.0935 16.114 27.2829 14.807 24.6717C13.0492 21.1631 12.1703 17.4304 12.0323 14.4702C13.1134 14.5502 14.2533 14.661 15.4469 14.8113C13.4878 18.0456 14.1821 20.3484 14.263 20.4565C14.263 20.4503 14.1795 17.8927 16.0331 15.2208C16.823 19.8342 18.1403 24.3414 19.9592 28.654C20.0409 28.6206 20.1209 28.7314 21.6001 27.9289C19.2859 21.3837 18.6329 15.7851 18.6118 12.6861C20.3696 11.5945 22.8464 10.9458 25.7863 11.1207C29.7036 11.3554 33.3766 12.4611 36.0098 13.8199C35.3834 14.7374 34.6999 15.6887 33.9593 16.6737C32.1373 13.3584 29.8056 12.817 29.6649 12.8311C29.6746 12.8311 31.9413 14.0677 33.3142 16.9813C30.0185 15.7718 26.6276 14.8395 23.1769 14.1943C22.0286 13.9815 20.874 13.8042 19.7148 13.6625C19.7087 13.7021 19.5558 13.8251 19.525 15.4493C26.369 16.7229 31.5353 18.9553 34.2229 20.4776C34.288 22.5474 33.6121 25.0136 31.9896 27.471C29.8275 30.7502 27.0335 33.3799 24.5392 34.9795ZM26.9474 9.75492C23.031 9.60902 20.4804 10.4079 18.625 11.5716C18.8008 6.97493 20.4979 4.85853 21.9833 4.95521C23.4687 4.58255 26.8085 9.53958 26.9474 9.75492ZM15.4645 10.0274C15.5066 11.0917 15.6042 12.1912 15.7466 13.3039C14.4678 13.2292 13.2206 13.1941 12.02 13.1932C12.013 13.478 12.0095 8.71077 14.1883 8.8347H14.1962C14.7024 8.9305 15.1305 9.43939 15.4645 10.0274ZM12.9982 24.2657C14.8229 27.7549 16.8039 29.5892 18.7331 30.621C14.6207 32.7972 11.9189 32.3788 11.2694 31.0174C11.2519 30.999 10.2912 29.6727 12.9982 24.2665V24.2657Z" fill="#29FF80"/>
</g>
<defs>
<clipPath id="clip0_7102_3331">
<rect width="45" height="45" fill="white"/>
</clipPath>
</defs>
</svg>
