<svg width="45" height="45" viewBox="0 0 45 45" fill="none" xmlns="http://www.w3.org/2000/svg">
<path d="M13.7925 6.2843C15.3262 5.12071 17.1999 4.49376 19.125 4.50005C19.665 4.50005 20.0947 4.7813 20.3445 4.9748C20.6235 5.1953 20.8845 5.47655 21.1185 5.7578C21.2844 5.95932 21.3751 6.21226 21.375 6.4733V14.625H18.9338C18.6684 13.8744 18.1462 13.2418 17.4595 12.839C16.7727 12.4361 15.9657 12.289 15.181 12.4237C14.3964 12.5583 13.6845 12.966 13.1714 13.5747C12.6582 14.1834 12.3768 14.9539 12.3768 15.75C12.3768 16.5462 12.6582 17.3167 13.1714 17.9254C13.6845 18.5341 14.3964 18.9418 15.181 19.0764C15.9657 19.2111 16.7727 19.064 17.4595 18.6611C18.1462 18.2583 18.6684 17.6257 18.9338 16.875H21.375V38.0588C21.3751 38.2254 21.3382 38.3899 21.267 38.5405C21.1958 38.6911 21.0921 38.8239 20.9633 38.9295C19.9238 39.78 18.5332 40.5 16.875 40.5C14.2065 40.5 12.2198 39.1545 10.935 37.5458C10.0122 36.3994 9.38 35.0471 9.09225 33.6038C8.21864 33.3693 7.40843 32.9427 6.72075 32.355C5.47875 31.2908 4.5 29.565 4.5 27C4.5 25.7468 4.58325 24.615 4.77 23.625H11.8125C13.2435 23.625 14.4225 24.6938 14.6025 26.0753C13.8543 26.3461 13.2258 26.8725 12.828 27.5617C12.4302 28.2509 12.2887 29.0585 12.4285 29.8418C12.5683 30.6252 12.9804 31.3339 13.592 31.843C14.2036 32.352 14.9755 32.6286 15.7712 32.6238C16.5669 32.6191 17.3353 32.3333 17.9408 31.817C18.5463 31.3007 18.9499 30.587 19.0804 29.8021C19.2108 29.0171 19.0597 28.2113 18.6537 27.5269C18.2477 26.8425 17.6129 26.3236 16.8615 26.0618C16.7667 24.7876 16.1935 23.5964 15.2571 22.7272C14.3207 21.8579 13.0902 21.3749 11.8125 21.375H5.49225C5.8365 20.7045 6.29775 20.1375 6.8985 19.7348C7.05198 19.6367 7.21127 19.5481 7.3755 19.4693C6.7365 17.5973 6.903 15.4058 7.5195 13.6845C7.91325 12.5775 8.53875 11.5313 9.39825 10.8338C9.96525 10.3725 10.6403 10.0688 11.3783 10.0103C11.7023 8.47355 12.6112 7.2023 13.7925 6.2843ZM23.625 32.625H25.3125C26.6552 32.625 27.9428 32.0917 28.8922 31.1423C29.8416 30.1929 30.375 28.9052 30.375 27.5625V23.4338C31.1256 23.1684 31.7582 22.6462 32.1611 21.9595C32.5639 21.2728 32.711 20.4658 32.5764 19.6811C32.4418 18.8964 32.0341 18.1846 31.4254 17.6714C30.8167 17.1583 30.0461 16.8768 29.25 16.8768C28.4539 16.8768 27.6833 17.1583 27.0746 17.6714C26.4659 18.1846 26.0582 18.8964 25.9236 19.6811C25.789 20.4658 25.9361 21.2728 26.3389 21.9595C26.7418 22.6462 27.3744 23.1684 28.125 23.4338V27.5625C28.125 29.115 26.865 30.375 25.3125 30.375H23.625V6.4733C23.6249 6.21226 23.7156 5.95932 23.8815 5.7578C24.1133 5.47655 24.3765 5.1953 24.6555 4.9748C24.903 4.7813 25.3328 4.50005 25.875 4.50005C27.8001 4.49376 29.6738 5.12071 31.2075 6.2843C32.3888 7.2023 33.3 8.47355 33.6217 10.0103C34.3597 10.0665 35.0347 10.3725 35.6017 10.8338C36.4613 11.5313 37.0868 12.5775 37.4805 13.6845C38.097 15.4058 38.2635 17.5995 37.6245 19.467C37.7865 19.5435 37.9455 19.6335 38.1015 19.737C38.7202 20.1488 39.1905 20.7383 39.537 21.4335C40.2188 22.7948 40.5 24.6938 40.5 27C40.5 29.5673 39.5213 31.2908 38.2793 32.355C37.5916 32.9427 36.7814 33.3693 35.9077 33.6038C35.6827 34.8593 35.0528 36.3128 34.065 37.5458C32.7825 39.1545 30.7935 40.5 28.125 40.5C26.469 40.5 25.0763 39.78 24.039 38.9295C23.9098 38.8242 23.8056 38.6914 23.734 38.5408C23.6624 38.3902 23.6252 38.2255 23.625 38.0588V32.625ZM15.75 14.625C15.4516 14.625 15.1655 14.7436 14.9545 14.9546C14.7435 15.1655 14.625 15.4517 14.625 15.75C14.625 16.0484 14.7435 16.3346 14.9545 16.5455C15.1655 16.7565 15.4516 16.875 15.75 16.875C16.0484 16.875 16.3345 16.7565 16.5455 16.5455C16.7565 16.3346 16.875 16.0484 16.875 15.75C16.875 15.4517 16.7565 15.1655 16.5455 14.9546C16.3345 14.7436 16.0484 14.625 15.75 14.625ZM15.75 28.125C15.4516 28.125 15.1655 28.2436 14.9545 28.4546C14.7435 28.6655 14.625 28.9517 14.625 29.25C14.625 29.5484 14.7435 29.8346 14.9545 30.0455C15.1655 30.2565 15.4516 30.375 15.75 30.375C16.0484 30.375 16.3345 30.2565 16.5455 30.0455C16.7565 29.8346 16.875 29.5484 16.875 29.25C16.875 28.9517 16.7565 28.6655 16.5455 28.4546C16.3345 28.2436 16.0484 28.125 15.75 28.125ZM29.25 21.375C29.5484 21.375 29.8345 21.2565 30.0455 21.0455C30.2565 20.8346 30.375 20.5484 30.375 20.25C30.375 19.9517 30.2565 19.6655 30.0455 19.4546C29.8345 19.2436 29.5484 19.125 29.25 19.125C28.9516 19.125 28.6655 19.2436 28.4545 19.4546C28.2435 19.6655 28.125 19.9517 28.125 20.25C28.125 20.5484 28.2435 20.8346 28.4545 21.0455C28.6655 21.2565 28.9516 21.375 29.25 21.375Z" fill="#29FF80"/>
</svg>
