<svg width="19" height="22" viewBox="0 0 19 22" fill="none" xmlns="http://www.w3.org/2000/svg">
<path d="M4 6.30872H3C2.46957 6.30872 1.96086 6.5396 1.58579 6.95056C1.21071 7.36153 1 7.91892 1 8.50012V18.3615C1 18.9426 1.21071 19.5 1.58579 19.911C1.96086 20.322 2.46957 20.5529 3 20.5529H12C12.5304 20.5529 13.0391 20.322 13.4142 19.911C13.7893 19.5 14 18.9426 14 18.3615V17.2657" stroke="white" stroke-width="2" stroke-linecap="round" stroke-linejoin="round"/>
<path d="M13 4.1173L16 7.40441M17.385 5.85399C17.7788 5.42246 18.0001 4.83716 18.0001 4.22688C18.0001 3.61659 17.7788 3.03129 17.385 2.59976C16.9912 2.16822 16.457 1.92578 15.9 1.92578C15.343 1.92578 14.8088 2.16822 14.415 2.59976L6 11.7872V15.0743H9L17.385 5.85399Z" stroke="white" stroke-width="2" stroke-linecap="round" stroke-linejoin="round"/>
</svg>
