<svg width="128" height="54" viewBox="0 0 128 54" fill="none" xmlns="http://www.w3.org/2000/svg">
<g filter="url(#filter0_di_6221_3952)">
<rect x="2" y="1" width="120" height="46" rx="11" fill="#3353A8"/>
</g>
<g filter="url(#filter1_d_6221_3952)">
<path d="M46.0078 25.5C46.5601 25.5 47.0078 25.0523 47.0078 24.5C47.0078 23.9477 46.5601 23.5 46.0078 23.5V25.5ZM13.263 23.7929C12.8725 24.1834 12.8725 24.8166 13.263 25.2071L19.6269 31.5711C20.0175 31.9616 20.6506 31.9616 21.0412 31.5711C21.4317 31.1805 21.4317 30.5474 21.0412 30.1569L15.3843 24.5L21.0412 18.8431C21.4317 18.4526 21.4317 17.8195 21.0412 17.4289C20.6506 17.0384 20.0175 17.0384 19.6269 17.4289L13.263 23.7929ZM46.0078 23.5L13.9701 23.5V25.5L46.0078 25.5V23.5Z" fill="white"/>
</g>
<g filter="url(#filter2_d_6221_3952)">
<path d="M57.58 31V18.02H63.42C64.8867 18.02 66.02 18.32 66.82 18.92C67.62 19.52 68.02 20.38 68.02 21.5C68.02 22.1933 67.8667 22.7533 67.56 23.18C67.2667 23.6067 66.8467 23.9267 66.3 24.14C65.7533 24.34 65.1133 24.4733 64.38 24.54L64.42 24.4C64.9667 24.4267 65.48 24.4867 65.96 24.58C66.4533 24.6733 66.88 24.8267 67.24 25.04C67.6133 25.2533 67.9067 25.5467 68.12 25.92C68.3467 26.2933 68.46 26.78 68.46 27.38C68.46 28.1667 68.2733 28.8267 67.9 29.36C67.5267 29.88 67.0067 30.2733 66.34 30.54C65.6867 30.8067 64.9267 30.96 64.06 31H57.58ZM59.5 29.28H63.7C64.58 29.28 65.2667 29.12 65.76 28.8C66.2533 28.48 66.5 27.9733 66.5 27.28C66.5 26.7467 66.3467 26.3467 66.04 26.08C65.7333 25.8133 65.3333 25.64 64.84 25.56C64.36 25.48 63.86 25.44 63.34 25.44H59.5V29.28ZM59.5 23.74H63.26C64.14 23.74 64.8267 23.5667 65.32 23.22C65.8133 22.86 66.06 22.34 66.06 21.66C66.06 20.9667 65.8133 20.4733 65.32 20.18C64.8267 19.8867 64.2 19.74 63.44 19.74H59.5V23.74ZM74.7003 31.2C73.847 31.2 73.067 30.98 72.3603 30.54C71.6536 30.1 71.0936 29.4933 70.6803 28.72C70.267 27.9333 70.0603 27.0333 70.0603 26.02C70.0603 25.0067 70.267 24.1133 70.6803 23.34C71.107 22.5533 71.687 21.94 72.4203 21.5C73.1536 21.0467 73.9736 20.82 74.8803 20.82C75.8803 20.82 76.6536 21.0533 77.2003 21.52C77.7603 21.9867 78.147 22.6133 78.3603 23.4C78.587 24.1867 78.7003 25.06 78.7003 26.02C78.7003 26.5533 78.6336 27.12 78.5003 27.72C78.367 28.32 78.1536 28.8867 77.8603 29.42C77.567 29.9533 77.1603 30.3867 76.6403 30.72C76.1203 31.04 75.4736 31.2 74.7003 31.2ZM75.2403 29.54C75.947 29.54 76.5403 29.3867 77.0203 29.08C77.5136 28.76 77.8803 28.3333 78.1203 27.8C78.3603 27.2667 78.4803 26.6733 78.4803 26.02C78.4803 25.3133 78.3536 24.6933 78.1003 24.16C77.8603 23.6267 77.4936 23.2133 77.0003 22.92C76.5203 22.6267 75.9336 22.48 75.2403 22.48C74.2003 22.48 73.3936 22.8133 72.8203 23.48C72.2603 24.1467 71.9803 24.9933 71.9803 26.02C71.9803 26.7133 72.1203 27.3267 72.4003 27.86C72.6803 28.38 73.0603 28.7933 73.5403 29.1C74.0336 29.3933 74.6003 29.54 75.2403 29.54ZM78.4803 21.02H80.4003V31H78.6403C78.6403 31 78.627 30.88 78.6003 30.64C78.5736 30.3867 78.547 30.0867 78.5203 29.74C78.4936 29.3933 78.4803 29.0867 78.4803 28.82V21.02ZM92.6845 27.2C92.6045 28.0267 92.3379 28.7467 91.8845 29.36C91.4445 29.96 90.8645 30.42 90.1445 30.74C89.4245 31.06 88.6245 31.22 87.7445 31.22C86.7712 31.22 85.8779 31.02 85.0645 30.62C84.2512 30.2067 83.5979 29.6133 83.1045 28.84C82.6245 28.0533 82.3845 27.12 82.3845 26.04C82.3845 24.9467 82.6245 24.0133 83.1045 23.24C83.5979 22.4533 84.2512 21.8533 85.0645 21.44C85.8779 21.0267 86.7712 20.82 87.7445 20.82C88.6245 20.82 89.4179 20.98 90.1245 21.3C90.8312 21.62 91.4112 22.08 91.8645 22.68C92.3179 23.2667 92.5912 23.9733 92.6845 24.8H90.9445C90.7179 24.08 90.3112 23.5133 89.7245 23.1C89.1512 22.6733 88.4912 22.46 87.7445 22.46C87.1312 22.46 86.5579 22.6 86.0245 22.88C85.5045 23.16 85.0845 23.5667 84.7645 24.1C84.4579 24.62 84.3045 25.2667 84.3045 26.04C84.3045 26.7867 84.4579 27.4267 84.7645 27.96C85.0845 28.48 85.5045 28.88 86.0245 29.16C86.5445 29.4267 87.1179 29.56 87.7445 29.56C88.5979 29.56 89.2912 29.3533 89.8245 28.94C90.3579 28.5267 90.7379 27.9467 90.9645 27.2H92.6845ZM94.9219 17.02H96.8219V31H94.9219V17.02ZM104.022 21.02L98.7419 26.04L98.7819 24.84L104.402 31H101.982L96.8619 25.42L101.362 21.02H104.022Z" fill="white"/>
</g>
<defs>
<filter id="filter0_di_6221_3952" x="0" y="0" width="128" height="54" filterUnits="userSpaceOnUse" color-interpolation-filters="sRGB">
<feFlood flood-opacity="0" result="BackgroundImageFix"/>
<feColorMatrix in="SourceAlpha" type="matrix" values="0 0 0 0 0 0 0 0 0 0 0 0 0 0 0 0 0 0 127 0" result="hardAlpha"/>
<feOffset dx="2" dy="3"/>
<feGaussianBlur stdDeviation="2"/>
<feComposite in2="hardAlpha" operator="out"/>
<feColorMatrix type="matrix" values="0 0 0 0 0 0 0 0 0 0 0 0 0 0 0 0 0 0 0.32 0"/>
<feBlend mode="normal" in2="BackgroundImageFix" result="effect1_dropShadow_6221_3952"/>
<feBlend mode="normal" in="SourceGraphic" in2="effect1_dropShadow_6221_3952" result="shape"/>
<feColorMatrix in="SourceAlpha" type="matrix" values="0 0 0 0 0 0 0 0 0 0 0 0 0 0 0 0 0 0 127 0" result="hardAlpha"/>
<feOffset dx="-1" dy="-1"/>
<feGaussianBlur stdDeviation="1.5"/>
<feComposite in2="hardAlpha" operator="arithmetic" k2="-1" k3="1"/>
<feColorMatrix type="matrix" values="0 0 0 0 1 0 0 0 0 1 0 0 0 0 1 0 0 0 1 0"/>
<feBlend mode="normal" in2="shape" result="effect2_innerShadow_6221_3952"/>
</filter>
<filter id="filter1_d_6221_3952" x="12.9688" y="16.1367" width="34.0391" height="15.7266" filterUnits="userSpaceOnUse" color-interpolation-filters="sRGB">
<feFlood flood-opacity="0" result="BackgroundImageFix"/>
<feColorMatrix in="SourceAlpha" type="matrix" values="0 0 0 0 0 0 0 0 0 0 0 0 0 0 0 0 0 0 127 0" result="hardAlpha"/>
<feOffset dy="-1"/>
<feComposite in2="hardAlpha" operator="out"/>
<feColorMatrix type="matrix" values="0 0 0 0 0 0 0 0 0 0 0 0 0 0 0 0 0 0 1 0"/>
<feBlend mode="normal" in2="BackgroundImageFix" result="effect1_dropShadow_6221_3952"/>
<feBlend mode="normal" in="SourceGraphic" in2="effect1_dropShadow_6221_3952" result="shape"/>
</filter>
<filter id="filter2_d_6221_3952" x="57.5781" y="16.0195" width="47.8242" height="15.1992" filterUnits="userSpaceOnUse" color-interpolation-filters="sRGB">
<feFlood flood-opacity="0" result="BackgroundImageFix"/>
<feColorMatrix in="SourceAlpha" type="matrix" values="0 0 0 0 0 0 0 0 0 0 0 0 0 0 0 0 0 0 127 0" result="hardAlpha"/>
<feOffset dx="1" dy="-1"/>
<feComposite in2="hardAlpha" operator="out"/>
<feColorMatrix type="matrix" values="0 0 0 0 0 0 0 0 0 0 0 0 0 0 0 0 0 0 1 0"/>
<feBlend mode="normal" in2="BackgroundImageFix" result="effect1_dropShadow_6221_3952"/>
<feBlend mode="normal" in="SourceGraphic" in2="effect1_dropShadow_6221_3952" result="shape"/>
</filter>
</defs>
</svg>
