<svg width="45" height="45" viewBox="0 0 45 45" fill="none" xmlns="http://www.w3.org/2000/svg">
<path d="M40.4245 4.6802C40.2961 4.53909 40.1404 4.42547 39.9668 4.34623C39.7932 4.26699 39.6054 4.22376 39.4146 4.21916C39.2239 4.21456 39.0342 4.24868 38.857 4.31946C38.6798 4.39025 38.5188 4.49622 38.3837 4.63098L37.2965 5.71292C37.1647 5.84476 37.0907 6.02354 37.0907 6.20994C37.0907 6.39634 37.1647 6.57511 37.2965 6.70696L38.2932 7.70188C38.3585 7.76752 38.4362 7.8196 38.5217 7.85514C38.6072 7.89068 38.6989 7.90898 38.7915 7.90898C38.8841 7.90898 38.9758 7.89068 39.0613 7.85514C39.1469 7.8196 39.2245 7.76752 39.2899 7.70188L40.3498 6.64719C40.8859 6.11194 40.936 5.24006 40.4245 4.6802ZM35.0983 7.91018L19.2323 23.7481C19.1361 23.8439 19.0662 23.9628 19.0293 24.0935L18.2954 26.2793C18.2778 26.3386 18.2766 26.4016 18.2918 26.4615C18.307 26.5215 18.3382 26.5762 18.3819 26.62C18.4256 26.6637 18.4804 26.6949 18.5403 26.7101C18.6003 26.7253 18.6633 26.7241 18.7226 26.7065L20.9067 25.9726C21.0373 25.9357 21.1563 25.8658 21.2521 25.7696L37.09 9.90178C37.2365 9.75369 37.3187 9.55377 37.3187 9.34544C37.3187 9.1371 37.2365 8.93718 37.09 8.78909L36.2154 7.91018C36.0672 7.76232 35.8663 7.67929 35.6569 7.67929C35.4475 7.67929 35.2466 7.76232 35.0983 7.91018Z" fill="#29FF80"/>
<path d="M33.9557 17.0209L23.2427 27.755C22.8286 28.17 22.3197 28.478 21.76 28.6523L19.4836 29.4144C18.9434 29.5669 18.3722 29.5727 17.829 29.431C17.2858 29.2894 16.7902 29.0055 16.3933 28.6085C15.9963 28.2116 15.7124 27.716 15.5707 27.1727C15.4291 26.6295 15.4348 26.0584 15.5874 25.5182L16.3494 23.2418C16.5233 22.6822 16.8306 22.1734 17.245 21.7591L27.9791 11.0443C28.0775 10.9461 28.1445 10.8208 28.1717 10.6844C28.1989 10.548 28.1851 10.4066 28.1319 10.2781C28.0788 10.1496 27.9887 10.0398 27.8731 9.96244C27.7575 9.88512 27.6216 9.84381 27.4825 9.84375H9.14062C7.83526 9.84375 6.58336 10.3623 5.66033 11.2853C4.7373 12.2084 4.21875 13.4603 4.21875 14.7656V35.8594C4.21875 37.1647 4.7373 38.4166 5.66033 39.3397C6.58336 40.2627 7.83526 40.7812 9.14062 40.7812H30.2344C31.5397 40.7812 32.7916 40.2627 33.7147 39.3397C34.6377 38.4166 35.1562 37.1647 35.1562 35.8594V17.5175C35.1562 17.3784 35.1149 17.2425 35.0376 17.1269C34.9602 17.0113 34.8504 16.9212 34.7219 16.8681C34.5934 16.8149 34.452 16.8011 34.3156 16.8283C34.1792 16.8555 34.0539 16.9225 33.9557 17.0209Z" fill="#29FF80"/>
</svg>
