<svg width="45" height="45" viewBox="0 0 45 45" fill="none" xmlns="http://www.w3.org/2000/svg">
<path d="M33.75 28.125H11.25L3.75 35.625V5.625C3.75 5.12772 3.94754 4.65081 4.29917 4.29917C4.65081 3.94754 5.12772 3.75 5.625 3.75H33.75C34.2473 3.75 34.7242 3.94754 35.0758 4.29917C35.4275 4.65081 35.625 5.12772 35.625 5.625V26.25C35.625 26.7473 35.4275 27.2242 35.0758 27.5758C34.7242 27.9275 34.2473 28.125 33.75 28.125ZM43.125 16.875V43.125L35.625 35.625H15C14.5027 35.625 14.0258 35.4275 13.6742 35.0758C13.3225 34.7242 13.125 34.2473 13.125 33.75V31.875H39.375V15H41.25C41.7473 15 42.2242 15.1975 42.5758 15.5492C42.9275 15.9008 43.125 16.3777 43.125 16.875ZM15.3562 7.5C13.725 7.5 12.4125 7.875 11.4 8.60625C10.425 9.375 9.9375 10.4438 9.95625 11.925L9.975 11.9812H13.5938C13.6125 11.4187 13.7812 10.9875 14.1188 10.6875C14.466 10.3996 14.9053 10.2465 15.3562 10.2562C15.9375 10.2562 16.425 10.4437 16.7625 10.7812C17.1 11.1375 17.25 11.625 17.25 12.1875C17.25 12.7875 17.1188 13.2938 16.8188 13.725C16.5563 14.1562 16.1625 14.5312 15.675 14.8312C14.7187 15.4688 14.0625 16.0312 13.7063 16.5375C13.3313 17.025 13.125 17.8125 13.125 18.75H16.875C16.875 18.1687 16.95 17.7 17.1188 17.3625C17.2875 17.025 17.6063 16.6875 18.075 16.3875C18.9188 15.9375 19.6125 15.3938 20.1562 14.6438C20.7 13.8938 20.9812 13.125 20.9812 12.1875C20.9812 10.7625 20.475 9.61875 19.4625 8.775C18.4688 7.93125 17.1 7.5 15.3562 7.5ZM13.125 20.625V24.375H16.875V20.625H13.125ZM24.375 24.375H28.125V20.625H24.375V24.375ZM24.375 7.5V18.75H28.125V7.5H24.375Z" fill="#29FF80"/>
</svg>
