<svg width="45" height="45" viewBox="0 0 45 45" fill="none" xmlns="http://www.w3.org/2000/svg">
<g clip-path="url(#clip0_7095_3583)">
<path fill-rule="evenodd" clip-rule="evenodd" d="M23.7563 4.15647L39.6937 13.0627C40.1616 13.2963 40.5551 13.6557 40.83 14.1005C41.1049 14.5453 41.2503 15.0579 41.25 15.5808V18.2808C41.25 19.5746 40.2 20.6246 38.9062 20.6246H37.5V35.6246H39.375C39.8723 35.6246 40.3492 35.8221 40.7008 36.1738C41.0525 36.5254 41.25 37.0023 41.25 37.4996C41.25 37.9969 41.0525 38.4738 40.7008 38.8254C40.3492 39.1771 39.8723 39.3746 39.375 39.3746H5.625C5.12772 39.3746 4.65081 39.1771 4.29917 38.8254C3.94754 38.4738 3.75 37.9969 3.75 37.4996C3.75 37.0023 3.94754 36.5254 4.29917 36.1738C4.65081 35.8221 5.12772 35.6246 5.625 35.6246H7.5V20.6246H6.09375C4.8 20.6246 3.75 19.5746 3.75 18.2808V15.5808C3.75 14.6021 4.25625 13.7021 5.07375 13.1921L21.2419 4.15647C21.6325 3.96109 22.0632 3.85938 22.5 3.85938C22.9368 3.85938 23.3656 3.96109 23.7563 4.15647ZM31.875 20.6246H13.125V35.6246H16.875V24.3746H20.625V35.6246H24.375V24.3746H28.125V35.6246H31.875V20.6246ZM22.5 11.2496C22.0027 11.2496 21.5258 11.4471 21.1742 11.7988C20.8225 12.1504 20.625 12.6273 20.625 13.1246C20.625 13.6219 20.8225 14.0988 21.1742 14.4504C21.5258 14.802 22.0027 14.9996 22.5 14.9996C22.9973 14.9996 23.4742 14.802 23.8258 14.4504C24.1775 14.0988 24.375 13.6219 24.375 13.1246C24.375 12.6273 24.1775 12.1504 23.8258 11.7988C23.4742 11.4471 22.9973 11.2496 22.5 11.2496Z" fill="#29FF80"/>
</g>
<defs>
<clipPath id="clip0_7095_3583">
<rect width="45" height="45" fill="white"/>
</clipPath>
</defs>
</svg>
