<svg width="84" height="41" viewBox="0 0 84 41" fill="none" xmlns="http://www.w3.org/2000/svg">
<path d="M20.7148 29.2227C20.7148 30.805 22.1538 32.0876 23.9291 32.0876C25.7045 32.0876 27.1434 30.805 27.1434 29.2227" stroke="#817F7C" stroke-width="3"/>
<path d="M20.7148 29.2227C20.7148 30.805 22.1538 32.0876 23.9291 32.0876C25.7045 32.0876 27.1434 30.805 27.1434 29.2227H20.7148Z" fill="#817F7C"/>
<path fill-rule="evenodd" clip-rule="evenodd" d="M33.5714 19.6722C33.5714 16.5829 33.5714 13.9424 33.5714 13.9424C33.5714 9.24393 29.2 5.34766 23.9286 5.34766C18.6571 5.34766 14.2857 9.24393 14.2857 13.9424C14.2857 13.9424 14.2857 16.5829 14.2857 19.6722C14.2857 24.5339 10 29.2219 10 29.2219H37.8571C37.8571 29.2219 33.5714 24.5339 33.5714 19.6722Z" stroke="#817F7C" stroke-width="3" stroke-linecap="square"/>
</svg>
