<svg width="86" height="82" viewBox="0 0 86 82" fill="none" xmlns="http://www.w3.org/2000/svg">
<g clip-path="url(#clip0_5593_2977)">
<path d="M17.4609 11.9811C17.4609 10.6455 16.8946 9.36464 15.8866 8.42025C14.8786 7.47586 13.5115 6.94531 12.0859 6.94531C10.6604 6.94531 9.29325 7.47586 8.28524 8.42025C7.27723 9.36464 6.71094 10.6455 6.71094 11.9811H17.4609Z" fill="#F7F7F7"/>
<path d="M12.0859 6.94531C10.6604 6.94531 9.29325 7.47586 8.28524 8.42025C7.27723 9.36464 6.71094 10.6455 6.71094 11.9811H10.7368C10.7368 9.86605 12.1262 8.06577 14.0962 7.31796C13.4582 7.07295 12.7755 6.9464 12.0859 6.94531Z" fill="white"/>
<path d="M71.002 64.8564V14.4989C71.002 12.4956 70.1525 10.5743 68.6405 9.15772C67.1285 7.74114 65.0778 6.94531 62.9395 6.94531H11.877H11.8823C13.3079 6.94531 14.675 7.47586 15.683 8.42025C16.691 9.36464 17.2573 10.6455 17.2573 11.9811H17.252V69.8922C17.252 71.2278 17.8182 72.5086 18.8263 73.453C19.8343 74.3974 21.2014 74.9279 22.627 74.9279H71.002V64.8564Z" fill="#F7F7F7"/>
<path d="M11.8809 6.94531C13.3064 6.94531 14.6736 7.47586 15.6816 8.42025C16.6896 9.36464 17.2559 10.6455 17.2559 11.9811H17.2505V69.8922C17.2505 71.2278 17.8168 72.5086 18.8248 73.453C19.8328 74.3974 21.1999 74.9279 22.6255 74.9279H26.6567C25.2312 74.9279 23.864 74.3974 22.856 73.453C21.848 72.5086 21.2817 71.2278 21.2817 69.8922V11.9811H21.2871C21.2871 10.6455 20.7208 9.36464 19.7128 8.42025C18.7048 7.47586 17.3376 6.94531 15.9121 6.94531H11.8809Z" fill="white"/>
<path d="M79.2812 70.2001C79.2812 71.5356 78.715 72.8165 77.7069 73.7609C76.6989 74.7053 75.3318 75.2358 73.9062 75.2358H22.8438C24.2693 75.2358 25.6364 74.7053 26.6444 73.7609C27.6525 72.8165 28.2188 71.5356 28.2188 70.2001V65.1719H79.2812V70.2001Z" fill="#F7F7F7"/>
<path d="M28.2187 65.1719V70.2026C28.2187 71.5382 27.6525 72.819 26.6444 73.7634C25.6364 74.7078 24.2693 75.2383 22.8438 75.2383H26.8616C28.2871 75.2383 29.6543 74.7078 30.6623 73.7634C31.6703 72.819 32.2366 71.5382 32.2366 70.2026V65.1719H28.2187Z" fill="white"/>
<path d="M79.2812 63.5984H72.5571V14.4923C72.5571 9.63275 68.3377 5.67969 63.1509 5.67969H12.0884C12.0561 5.67969 12.0319 5.70487 12.0024 5.70487C10.2382 5.72865 8.55463 6.40113 7.31483 7.57727C6.07504 8.75342 5.37834 10.339 5.375 11.992C5.375 12.3259 5.51657 12.6461 5.76858 12.8822C6.02058 13.1183 6.36237 13.2509 6.71875 13.2509H16.1196V69.8956C16.1196 73.3677 19.135 76.1903 22.8384 76.1903H73.9062C75.5259 76.1858 77.0892 75.6324 78.3073 74.6322C79.5255 73.6321 80.3162 72.2529 80.5336 70.7491C80.5912 70.6127 80.6222 70.4678 80.625 70.3211V64.8674C80.625 64.5335 80.4834 64.2133 80.2314 63.9772C79.9794 63.7411 79.6376 63.6084 79.2812 63.6084V63.5984ZM69.8696 14.4923V63.5984H28.2188C27.8624 63.5984 27.5206 63.731 27.2686 63.9671C27.0166 64.2032 26.875 64.5234 26.875 64.8573V69.8855C26.875 71.9678 25.0663 73.6623 22.8438 73.6623C20.6212 73.6623 18.8125 71.9678 18.8125 69.8855L18.8071 72.3732V12.0121L18.8125 11.9819C18.8125 10.5568 18.2858 9.25507 17.4284 8.19756H63.1509C66.8542 8.19756 69.8696 11.0176 69.8696 14.4923ZM8.29094 10.723C8.84725 9.25759 10.3415 8.20512 12.0938 8.20512C13.846 8.20512 15.3403 9.25759 15.8966 10.723H8.29094ZM73.9062 73.6623H28.1838C29.0384 72.6048 29.5625 71.3081 29.5625 69.8855V66.1163H77.9375V69.8855C77.9375 71.9678 76.1288 73.6623 73.9062 73.6623Z" fill="#FBC658"/>
<path d="M33.5938 14.4141H55.0938M25.5312 21.9677H63.1562M25.5312 29.5213H63.1562M25.5312 37.0749H63.1562M25.5312 44.6286H63.1562M25.5312 52.1822H63.1562" stroke="#FBC658" stroke-miterlimit="10" stroke-linecap="round" stroke-linejoin="round"/>
</g>
<defs>
<clipPath id="clip0_5593_2977">
<rect width="86" height="80.572" fill="white" transform="translate(0 0.644531)"/>
</clipPath>
</defs>
</svg>
