<svg width="30" height="30" viewBox="0 0 30 30" fill="none" xmlns="http://www.w3.org/2000/svg">
<path d="M25.3125 5.15625H4.6875C4.31454 5.15625 3.95685 5.30441 3.69313 5.56813C3.42941 5.83185 3.28125 6.18954 3.28125 6.5625V23.4375C3.28125 23.8105 3.42941 24.1681 3.69313 24.4319C3.95685 24.6956 4.31454 24.8438 4.6875 24.8438H25.3125C25.6855 24.8438 26.0431 24.6956 26.3069 24.4319C26.5706 24.1681 26.7188 23.8105 26.7188 23.4375V6.5625C26.7188 6.18954 26.5706 5.83185 26.3069 5.56813C26.0431 5.30441 25.6855 5.15625 25.3125 5.15625ZM4.21875 23.4375V17.3438H6.5625C6.68682 17.3438 6.80605 17.2944 6.89396 17.2065C6.98186 17.1185 7.03125 16.9993 7.03125 16.875C7.03125 16.7507 6.98186 16.6315 6.89396 16.5435C6.80605 16.4556 6.68682 16.4062 6.5625 16.4062H4.21875V13.5938H6.5625C6.68682 13.5938 6.80605 13.5444 6.89396 13.4565C6.98186 13.3685 7.03125 13.2493 7.03125 13.125C7.03125 13.0007 6.98186 12.8815 6.89396 12.7935C6.80605 12.7056 6.68682 12.6562 6.5625 12.6562H4.21875V9.84375H6.5625C6.68682 9.84375 6.80605 9.79436 6.89396 9.70646C6.98186 9.61855 7.03125 9.49932 7.03125 9.375C7.03125 9.25068 6.98186 9.13145 6.89396 9.04354C6.80605 8.95564 6.68682 8.90625 6.5625 8.90625H4.21875V6.5625C4.21875 6.43818 4.26814 6.31895 4.35604 6.23104C4.44395 6.14314 4.56318 6.09375 4.6875 6.09375H9.84375V23.9062H4.6875C4.56318 23.9062 4.44395 23.8569 4.35604 23.769C4.26814 23.681 4.21875 23.5618 4.21875 23.4375ZM25.7812 23.4375C25.7812 23.5618 25.7319 23.681 25.644 23.769C25.556 23.8569 25.4368 23.9062 25.3125 23.9062H10.7812V6.09375H25.3125C25.4368 6.09375 25.556 6.14314 25.644 6.23104C25.7319 6.31895 25.7812 6.43818 25.7812 6.5625V23.4375Z" fill="black"/>
</svg>
