<svg width="36" height="31" viewBox="0 0 36 31" fill="none" xmlns="http://www.w3.org/2000/svg">
<path d="M23.625 16.7395C23.625 18.3741 23.0324 19.9418 21.9775 21.0976C20.9226 22.2535 19.4918 22.9028 18 22.9028C16.5082 22.9028 15.0774 22.2535 14.0225 21.0976C12.9676 19.9418 12.375 18.3741 12.375 16.7395C12.375 15.1049 12.9676 13.5372 14.0225 12.3814C15.0774 11.2255 16.5082 10.5762 18 10.5762C19.4918 10.5762 20.9226 11.2255 21.9775 12.3814C23.0324 13.5372 23.625 15.1049 23.625 16.7395Z" fill="#8FF49E"/>
<path d="M4.5 5.64551C3.30653 5.64551 2.16193 6.16499 1.31802 7.08967C0.474106 8.01434 0 9.26848 0 10.5762L0 25.3682C0 26.6759 0.474106 27.93 1.31802 28.8547C2.16193 29.7793 3.30653 30.2988 4.5 30.2988H31.5C32.6935 30.2988 33.8381 29.7793 34.682 28.8547C35.5259 27.93 36 26.6759 36 25.3682V10.5762C36 9.26848 35.5259 8.01434 34.682 7.08967C33.8381 6.16499 32.6935 5.64551 31.5 5.64551H28.863C27.6696 5.64523 26.5252 5.12557 25.6815 4.20082L23.8185 2.15953C22.9748 1.23479 21.8304 0.715123 20.637 0.714844H15.363C14.1696 0.715123 13.0252 1.23479 12.1815 2.15953L10.3185 4.20082C9.47478 5.12557 8.33038 5.64523 7.137 5.64551H4.5ZM5.625 10.5762C5.32663 10.5762 5.04048 10.4463 4.8295 10.2151C4.61853 9.98396 4.5 9.67043 4.5 9.34351C4.5 9.01658 4.61853 8.70305 4.8295 8.47188C5.04048 8.24071 5.32663 8.11084 5.625 8.11084C5.92337 8.11084 6.20952 8.24071 6.4205 8.47188C6.63147 8.70305 6.75 9.01658 6.75 9.34351C6.75 9.67043 6.63147 9.98396 6.4205 10.2151C6.20952 10.4463 5.92337 10.5762 5.625 10.5762ZM25.875 16.7395C25.875 19.028 25.0453 21.2227 23.5685 22.8409C22.0916 24.4591 20.0886 25.3682 18 25.3682C15.9114 25.3682 13.9084 24.4591 12.4315 22.8409C10.9547 21.2227 10.125 19.028 10.125 16.7395C10.125 14.451 10.9547 12.2563 12.4315 10.6381C13.9084 9.01993 15.9114 8.11084 18 8.11084C20.0886 8.11084 22.0916 9.01993 23.5685 10.6381C25.0453 12.2563 25.875 14.451 25.875 16.7395Z" fill="#8FF49E"/>
</svg>
