<svg width="45" height="45" viewBox="0 0 45 45" fill="none" xmlns="http://www.w3.org/2000/svg">
<path d="M5.625 22.5C5.625 22.9973 5.82254 23.4742 6.17417 23.8258C6.52581 24.1775 7.00272 24.375 7.5 24.375H18.75C19.2473 24.375 19.7242 24.1775 20.0758 23.8258C20.4275 23.4742 20.625 22.9973 20.625 22.5V7.5C20.625 7.00272 20.4275 6.52581 20.0758 6.17417C19.7242 5.82254 19.2473 5.625 18.75 5.625H7.5C7.00272 5.625 6.52581 5.82254 6.17417 6.17417C5.82254 6.52581 5.625 7.00272 5.625 7.5V22.5ZM5.625 37.5C5.625 37.9973 5.82254 38.4742 6.17417 38.8258C6.52581 39.1775 7.00272 39.375 7.5 39.375H18.75C19.2473 39.375 19.7242 39.1775 20.0758 38.8258C20.4275 38.4742 20.625 37.9973 20.625 37.5V30C20.625 29.5027 20.4275 29.0258 20.0758 28.6742C19.7242 28.3225 19.2473 28.125 18.75 28.125H7.5C7.00272 28.125 6.52581 28.3225 6.17417 28.6742C5.82254 29.0258 5.625 29.5027 5.625 30V37.5ZM24.375 37.5C24.375 37.9973 24.5725 38.4742 24.9242 38.8258C25.2758 39.1775 25.7527 39.375 26.25 39.375H37.5C37.9973 39.375 38.4742 39.1775 38.8258 38.8258C39.1775 38.4742 39.375 37.9973 39.375 37.5V22.5C39.375 22.0027 39.1775 21.5258 38.8258 21.1742C38.4742 20.8225 37.9973 20.625 37.5 20.625H26.25C25.7527 20.625 25.2758 20.8225 24.9242 21.1742C24.5725 21.5258 24.375 22.0027 24.375 22.5V37.5ZM26.25 5.625C25.7527 5.625 25.2758 5.82254 24.9242 6.17417C24.5725 6.52581 24.375 7.00272 24.375 7.5V15C24.375 15.4973 24.5725 15.9742 24.9242 16.3258C25.2758 16.6775 25.7527 16.875 26.25 16.875H37.5C37.9973 16.875 38.4742 16.6775 38.8258 16.3258C39.1775 15.9742 39.375 15.4973 39.375 15V7.5C39.375 7.00272 39.1775 6.52581 38.8258 6.17417C38.4742 5.82254 37.9973 5.625 37.5 5.625H26.25Z" fill="#29FF80"/>
</svg>
