<svg width="28" height="24" viewBox="0 0 28 24" fill="none" xmlns="http://www.w3.org/2000/svg">
<path d="M11.9706 0.0297308C5.49136 0.0297308 0.220703 4.69747 0.220703 10.4355C0.220703 16.1736 5.49136 20.8413 11.9706 20.8413C13.9513 20.8413 15.8984 20.4251 17.5434 19.6224C17.6751 19.7628 17.8212 19.8922 17.9798 20.0089L21.3369 22.9819C21.6469 23.2908 22.0249 23.5404 22.4477 23.7152C22.8705 23.8901 23.3293 23.9865 23.7957 23.9987C24.2621 24.0108 24.7265 23.9384 25.1602 23.7859C25.5939 23.6334 25.9878 23.404 26.3178 23.1118C26.6477 22.8196 26.9068 22.4707 27.079 22.0866C27.2512 21.7025 27.333 21.2913 27.3192 20.8782C27.3055 20.4651 27.1966 20.0589 26.9991 19.6844C26.8017 19.31 26.5199 18.9752 26.1711 18.7007L22.814 15.7276C22.6505 15.5827 22.4705 15.4532 22.2769 15.3411C23.1833 13.8843 23.754 12.1896 23.754 10.4058C23.754 4.66774 18.4834 0 12.0042 0L11.9706 0.0297308ZM11.9706 3.00281C16.637 3.00281 20.3633 6.30294 20.3633 10.4355C20.3633 12.3978 19.5576 14.2113 18.1477 15.5492C18.1141 15.579 18.0805 15.6087 18.0469 15.6384C17.8884 15.7551 17.7423 15.8845 17.6105 16.0249C16.1334 17.2142 14.1191 17.898 11.937 17.898C7.27063 17.898 3.54424 14.5978 3.54424 10.4653C3.54424 6.33267 7.27063 3.03255 11.937 3.03255L11.9706 3.00281Z" fill="black" fill-opacity="0.3"/>
</svg>
