<svg width="37" height="37" viewBox="0 0 37 37" fill="none" xmlns="http://www.w3.org/2000/svg">
<path d="M18.5007 34.887C17.4678 34.887 16.4195 34.6558 15.6024 34.1778L7.12327 29.2908C3.66994 26.9628 3.4541 26.6083 3.4541 22.9545V14.0437C3.4541 10.3899 3.65452 10.0353 7.04618 7.73826L15.587 2.80492C17.2057 1.86451 19.7495 1.86451 21.3682 2.80492L29.8782 7.70742C33.3316 10.0353 33.5474 10.3899 33.5474 14.0437V22.9391C33.5474 26.5928 33.347 26.9474 29.9553 29.2445L21.4145 34.1778C20.582 34.6558 19.5336 34.887 18.5007 34.887ZM18.5007 4.42367C17.8532 4.42367 17.2211 4.54701 16.7741 4.80909L8.29493 9.71159C5.78202 11.4074 5.78202 11.4074 5.78202 14.0437V22.9391C5.78202 25.5753 5.78202 25.5753 8.3566 27.3174L16.7741 32.1737C17.6836 32.6978 19.3332 32.6978 20.2428 32.1737L28.722 27.2712C31.2195 25.5753 31.2195 25.5753 31.2195 22.9391V14.0437C31.2195 11.4074 31.2195 11.4074 28.6449 9.66534L20.2274 4.80909C19.7803 4.54701 19.1482 4.42367 18.5007 4.42367Z" fill="white"/>
<path d="M18.5 24.2812C15.3088 24.2812 12.7188 21.6912 12.7188 18.5C12.7188 15.3088 15.3088 12.7188 18.5 12.7188C21.6912 12.7188 24.2812 15.3088 24.2812 18.5C24.2812 21.6912 21.6912 24.2812 18.5 24.2812ZM18.5 15.0312C16.5883 15.0312 15.0312 16.5883 15.0312 18.5C15.0312 20.4117 16.5883 21.9688 18.5 21.9688C20.4117 21.9688 21.9688 20.4117 21.9688 18.5C21.9688 16.5883 20.4117 15.0312 18.5 15.0312Z" fill="white"/>
</svg>
