<svg width="32" height="32" viewBox="0 0 32 32" fill="none" xmlns="http://www.w3.org/2000/svg">
<path fill-rule="evenodd" clip-rule="evenodd" d="M4.66797 12.7573V19.2427C4.66797 22.3013 4.66797 23.8293 5.63064 24.78C6.50397 25.6427 7.86263 25.7213 10.4253 25.7293C10.2906 24.8293 10.2626 23.756 10.2546 22.492C10.2546 22.3634 10.28 22.236 10.3293 22.1172C10.3785 21.9983 10.4507 21.8904 10.5418 21.7995C10.6328 21.7086 10.7408 21.6366 10.8597 21.5874C10.9786 21.5383 11.106 21.5132 11.2346 21.5133C11.3633 21.5117 11.4911 21.5355 11.6106 21.5833C11.7301 21.6311 11.839 21.702 11.9311 21.7919C12.0233 21.8818 12.0968 21.9889 12.1475 22.1072C12.1982 22.2255 12.2251 22.3526 12.2266 22.4813C12.2346 23.9 12.2706 24.9053 12.4133 25.668C12.5506 26.404 12.7693 26.828 13.0893 27.1453C13.4533 27.5053 13.964 27.7387 14.9293 27.8653C15.9213 27.9987 17.236 28 19.1226 28H20.436C22.3226 28 23.6373 27.9973 24.6306 27.8667C25.5946 27.7387 26.1053 27.504 26.468 27.1453C26.832 26.7853 27.0693 26.2813 27.1986 25.3293C27.332 24.3507 27.3346 23.0507 27.3346 21.1893V10.8107C27.3346 8.948 27.332 7.65067 27.1986 6.67067C27.0693 5.71867 26.832 5.21333 26.4693 4.85467C26.1053 4.49467 25.5946 4.26133 24.6293 4.13467C23.6386 4 22.324 4 20.4373 4H19.124C17.2373 4 15.9226 4.00267 14.9293 4.13333C13.9653 4.26133 13.4546 4.496 13.0906 4.85467C12.7706 5.17067 12.552 5.596 12.4146 6.332C12.272 7.09467 12.236 8.1 12.228 9.51867C12.2264 9.64737 12.1995 9.77449 12.1488 9.8928C12.0981 10.0111 12.0246 10.1182 11.9325 10.2081C11.8404 10.298 11.7314 10.3689 11.6119 10.4167C11.4924 10.4645 11.3647 10.4883 11.236 10.4867C11.1073 10.4868 10.9799 10.4617 10.861 10.4126C10.7421 10.3634 10.6341 10.2914 10.5431 10.2005C10.4521 10.1096 10.3799 10.0017 10.3306 9.88283C10.2813 9.764 10.256 9.63663 10.256 9.508C10.264 8.244 10.292 7.17067 10.4266 6.27067C7.86397 6.27867 6.50664 6.35733 5.63197 7.22C4.6693 8.17067 4.66797 9.7 4.66797 12.7573ZM7.91464 16.688C7.8232 16.5983 7.75057 16.4912 7.70099 16.3731C7.65141 16.2549 7.62588 16.1281 7.62588 16C7.62588 15.8719 7.65141 15.7451 7.70099 15.6269C7.75057 15.5088 7.8232 15.4017 7.91464 15.312L10.5413 12.7173C10.7273 12.5344 10.9778 12.432 11.2386 12.432C11.4995 12.432 11.7499 12.5344 11.936 12.7173C12.0274 12.8071 12.1 12.9141 12.1496 13.0323C12.1992 13.1504 12.2247 13.2772 12.2247 13.4053C12.2247 13.5334 12.1992 13.6603 12.1496 13.7784C12.1 13.8965 12.0274 14.0036 11.936 14.0933L10.9893 15.0267H20.4373C20.9813 15.0267 21.424 15.4627 21.424 16C21.424 16.5373 20.9813 16.9733 20.4373 16.9733H10.988L11.9346 17.9067C12.0261 17.9964 12.0987 18.1035 12.1483 18.2216C12.1979 18.3397 12.2234 18.4666 12.2234 18.5947C12.2234 18.7228 12.1979 18.8496 12.1483 18.9677C12.0987 19.0859 12.0261 19.1929 11.9346 19.2827C11.7486 19.4656 11.4982 19.568 11.2373 19.568C10.9764 19.568 10.726 19.4656 10.54 19.2827L7.91464 16.688Z" fill="white"/>
</svg>
