<svg width="36" height="37" viewBox="0 0 36 37" fill="none" xmlns="http://www.w3.org/2000/svg">
<g filter="url(#filter0_d_6862_3523)">
<path d="M26.125 3.75H23C22.8342 3.75 22.6753 3.81585 22.5581 3.93306C22.4408 4.05027 22.375 4.20924 22.375 4.375V4.44875L26.75 7.94875V4.375C26.75 4.20924 26.6842 4.05027 26.5669 3.93306C26.4497 3.81585 26.2908 3.75 26.125 3.75Z" fill="#ED8530"/>
<path d="M16.4375 11.875C16.4375 11.4606 16.6021 11.0632 16.8951 10.7701C17.1882 10.4771 17.5856 10.3125 18 10.3125C18.4144 10.3125 18.8118 10.4771 19.1049 10.7701C19.3979 11.0632 19.5625 11.4606 19.5625 11.875C19.5625 12.2894 19.3979 12.6868 19.1049 12.9799C18.8118 13.2729 18.4144 13.4375 18 13.4375C17.5856 13.4375 17.1882 13.2729 16.8951 12.9799C16.6021 12.6868 16.4375 12.2894 16.4375 11.875Z" fill="#ED8530"/>
<path fill-rule="evenodd" clip-rule="evenodd" d="M28.9375 13.6984L29.915 14.4809C30.1096 14.6325 30.3561 14.7013 30.6011 14.6724C30.8461 14.6435 31.0699 14.5192 31.2238 14.3264C31.3778 14.1336 31.4495 13.888 31.4235 13.6426C31.3976 13.3973 31.2759 13.1721 31.085 13.0159L20.9288 4.89085C20.0975 4.22568 19.0646 3.86328 18 3.86328C16.9354 3.86328 15.9025 4.22568 15.0712 4.89085L4.915 13.0159C4.72073 13.1712 4.59611 13.3973 4.56857 13.6445C4.54103 13.8917 4.61281 14.1397 4.76812 14.334C4.92344 14.5282 5.14957 14.6529 5.39677 14.6804C5.64397 14.708 5.89198 14.6362 6.08625 14.4809L7.0625 13.6984V26.5609H5.5C5.25136 26.5609 5.0129 26.6596 4.83709 26.8354C4.66127 27.0113 4.5625 27.2497 4.5625 27.4984C4.5625 27.747 4.66127 27.9854 4.83709 28.1613C5.0129 28.3371 5.25136 28.4359 5.5 28.4359H30.5C30.7486 28.4359 30.9871 28.3371 31.1629 28.1613C31.3387 27.9854 31.4375 27.747 31.4375 27.4984C31.4375 27.2497 31.3387 27.0113 31.1629 26.8354C30.9871 26.6596 30.7486 26.5609 30.5 26.5609H28.9375V13.6984ZM14.5625 11.8734C14.5625 10.9617 14.9247 10.0873 15.5693 9.44267C16.214 8.79802 17.0883 8.43585 18 8.43585C18.9117 8.43585 19.786 8.79802 20.4307 9.44267C21.0753 10.0873 21.4375 10.9617 21.4375 11.8734C21.4375 12.785 21.0753 13.6594 20.4307 14.304C19.786 14.9487 18.9117 15.3109 18 15.3109C17.0883 15.3109 16.214 14.9487 15.5693 14.304C14.9247 13.6594 14.5625 12.785 14.5625 11.8734ZM18.0625 16.5609C18.8925 16.5609 19.6088 16.5609 20.1825 16.6384C20.7975 16.7209 21.3862 16.9071 21.8638 17.3846C22.3412 17.8621 22.5275 18.4509 22.61 19.0659C22.6825 19.6034 22.6875 20.2659 22.6875 21.0321V26.5609H20.8125V21.2484C20.8125 20.3384 20.81 19.7484 20.7525 19.3159C20.6975 18.9096 20.61 18.7821 20.5375 18.7109C20.4662 18.6396 20.3387 18.5509 19.9325 18.4959C19.4987 18.4384 18.91 18.4359 18 18.4359C17.09 18.4359 16.5 18.4384 16.0675 18.4959C15.6613 18.5509 15.5338 18.6396 15.4625 18.7109C15.3913 18.7821 15.3025 18.9096 15.2475 19.3159C15.19 19.7496 15.1875 20.3384 15.1875 21.2484V26.5609H13.3125V21.1859C13.3125 20.3559 13.3125 19.6396 13.39 19.0659C13.4725 18.4509 13.6588 17.8621 14.1363 17.3846C14.6138 16.9071 15.2037 16.7209 15.8175 16.6384C16.3912 16.5609 17.1075 16.5609 17.9388 16.5609H18.0625Z" fill="#ED8530"/>
<path d="M16.4375 11.875C16.4375 11.4606 16.6021 11.0632 16.8951 10.7701C17.1882 10.4771 17.5856 10.3125 18 10.3125C18.4144 10.3125 18.8118 10.4771 19.1049 10.7701C19.3979 11.0632 19.5625 11.4606 19.5625 11.875C19.5625 12.2894 19.3979 12.6868 19.1049 12.9799C18.8118 13.2729 18.4144 13.4375 18 13.4375C17.5856 13.4375 17.1882 13.2729 16.8951 12.9799C16.6021 12.6868 16.4375 12.2894 16.4375 11.875Z" fill="#ED8530"/>
</g>
<defs>
<filter id="filter0_d_6862_3523" x="-1" y="0" width="38" height="38" filterUnits="userSpaceOnUse" color-interpolation-filters="sRGB">
<feFlood flood-opacity="0" result="BackgroundImageFix"/>
<feColorMatrix in="SourceAlpha" type="matrix" values="0 0 0 0 0 0 0 0 0 0 0 0 0 0 0 0 0 0 127 0" result="hardAlpha"/>
<feOffset dy="4"/>
<feGaussianBlur stdDeviation="2"/>
<feComposite in2="hardAlpha" operator="out"/>
<feColorMatrix type="matrix" values="0 0 0 0 0 0 0 0 0 0 0 0 0 0 0 0 0 0 0.25 0"/>
<feBlend mode="normal" in2="BackgroundImageFix" result="effect1_dropShadow_6862_3523"/>
<feBlend mode="normal" in="SourceGraphic" in2="effect1_dropShadow_6862_3523" result="shape"/>
</filter>
</defs>
</svg>
