<svg width="14" height="24" viewBox="0 0 14 24" fill="none" xmlns="http://www.w3.org/2000/svg">
<path fill-rule="evenodd" clip-rule="evenodd" d="M11.3754 0.692967C9.9286 0.433145 8.46453 0.305968 6.99842 0.312758C5.21542 0.312758 3.74542 0.484783 2.62142 0.692967C1.48242 0.903342 0.913419 1.00853 0.437419 1.65061C-0.037581 2.29269 -0.0125811 2.98627 0.0374189 4.37343C0.210419 9.13755 1.14842 15.0894 6.24842 15.6153V19.4876H4.81842C4.58733 19.4877 4.36341 19.5756 4.18475 19.7362C4.00609 19.8968 3.88371 20.1202 3.83842 20.3685L3.64842 21.405H0.998419C0.799506 21.405 0.608741 21.4916 0.468089 21.6457C0.327436 21.7999 0.248419 22.0089 0.248419 22.2268C0.248419 22.4448 0.327436 22.6538 0.468089 22.8079C0.608741 22.962 0.799506 23.0486 0.998419 23.0486H12.9984C13.1973 23.0486 13.3881 22.962 13.5287 22.8079C13.6694 22.6538 13.7484 22.4448 13.7484 22.2268C13.7484 22.0089 13.6694 21.7999 13.5287 21.6457C13.3881 21.4916 13.1973 21.405 12.9984 21.405H10.3484L10.1584 20.3685C10.1131 20.1202 9.99074 19.8968 9.81208 19.7362C9.63342 19.5756 9.40951 19.4877 9.17842 19.4876H7.74842V15.6153C12.8484 15.0894 13.7874 9.13865 13.9594 4.37343C14.0094 2.98627 14.0354 2.2916 13.5594 1.65061C13.0834 1.00853 12.5144 0.903342 11.3754 0.692967Z" fill="black" fill-opacity="0.85"/>
</svg>
